<?xml version="1.0" encoding="utf-8"?>
<!-- Generator: Adobe Illustrator 24.1.1, SVG Export Plug-In . SVG Version: 6.00 Build 0)  -->
<svg version="1.1" id="katman_1" xmlns="http://www.w3.org/2000/svg" xmlns:xlink="http://www.w3.org/1999/xlink" x="0px" y="0px"
	 viewBox="0 0 800 533" style="enable-background:new 0 0 800 533;" xml:space="preserve">
<style type="text/css">
	.st0{fill:none;enable-background:new    ;}
	.st1{fill:#30F9B0;stroke:#444444;stroke-width:0.5;stroke-miterlimit:11;}
	.st2{fill:#E3691F;stroke:#444444;stroke-width:0.5;stroke-miterlimit:11;}
	.st3{fill:#D091C4;stroke:#444444;stroke-width:0.5;stroke-miterlimit:11;}
	.st4{fill:#EC0C6A;stroke:#444444;stroke-width:0.5;stroke-miterlimit:11;}
	.st5{fill:#F1CAC1;stroke:#444444;stroke-width:0.5;stroke-miterlimit:11;}
	.st6{fill:#0BF0AA;stroke:#444444;stroke-width:0.5;stroke-miterlimit:11;}
	.st7{fill:#8094D0;stroke:#444444;stroke-width:0.5;stroke-miterlimit:11;}
	.st8{fill:#C3E2C1;stroke:#444444;stroke-width:0.5;stroke-miterlimit:11;}
	.st9{fill:#146117;stroke:#444444;stroke-width:0.5;stroke-miterlimit:11;}
	.st10{fill:#B73D39;stroke:#444444;stroke-width:0.5;stroke-miterlimit:11;}
	.st11{fill:#E1F7A1;stroke:#444444;stroke-width:0.5;stroke-miterlimit:11;}
	.st12{fill:#FF58DC;stroke:#444444;stroke-width:0.5;stroke-miterlimit:11;}
	.st13{fill:#332D52;stroke:#444444;stroke-width:0.5;stroke-miterlimit:11;}
	.st14{fill:#CA37AB;stroke:#444444;stroke-width:0.5;stroke-miterlimit:11;}
	.st15{font-family:'Tahoma';}
	.st16{font-size:13px;}
	.st17{font-size:12px;}
	.st18{font-size:7px;}
	.st19{fill:none;}
	.st20{font-family:'ArialMT';}
	.st21{font-size:14px;}
	.st22{enable-background:new    ;}
</style>
<path class="st0" d="M0,0"/>
<g>
	<path class="st1" d="M618.8,363.4l-0.2,0.5h-0.3l0.2-0.4L618.8,363.4z"/>
	<path class="st2" d="M148.8,398l-0.1,2.8l-1.3-0.5l-0.4-2.5L148.8,398z M157.9,394.8l2.7,0.4l1.1,1.4l-1.8,0.3L157.9,394.8z
		 M154.8,370.8l-4.7,1.8l2.2-2.7l4-0.5L154.8,370.8z M150.6,363.9l-1.7,2.9l1.2-4l2.1-0.1L150.6,363.9z M144,355.1l0.8,1.6l-1,0.5
		l-0.2-2.9l-2.1-3.6l0.1-3.1l2.6,4.3L144,355.1z M149.8,353.2l-0.1,2.2l-1.2-0.5l1.1-3.3h2.4L149.8,353.2z M142.4,345.8l-1.1-0.9
		l0.9-1.3l1.8-0.2l0.7,1.6L142.4,345.8z M163,404.3l1.6,1.7l0.8,2.8l-2.6-3.6L163,404.3L163,404.3L163,404.3z M163,404.2L163,404.2
		L163,404.2L163,404.2L163,404.2L163,404.2L163,404.2L163,404.2z M206.4,296.6l20.4,6.5l-18.9,67l0.8,3.3l-1.1-0.4l0.5,2.5l2.2,1.4
		l0.3,1.9l1.3,1.1l0.5-1.1l1.2,1.8l0.3,2.9l1.4,2.7l-0.3,3.6l1.7-1l1.5,1.3l-0.8,1.3l1.1,2h2l1.4,5.6l1.9-0.5l2.9,8.5l2.4,2.5
		l-0.5,1.3l1.8,1.8l0.7,2.3l1.4,0.1l1.1,2.7l-0.2,6.7l-1.3,2l1.8,4.8l1.1,0.4l0.8,2.5l-62.9-16.5l-1.1-1.5l-1.3,0.7l0.2-5.9l-2,0.5
		l-2.4-2.5l-0.3-1.4l2.1-1.9l-0.8-1.2l-1.3,1.2l-3.3-1.4l0,0l0,0l0.7-3.4l1.2-1.2l-3.6,1.3l1.7-2.9l-0.3-2.2l-1.7-1.5l-2.4,0.3
		l-6.2-3.5l0.6-1.4l2-0.9l0.1-1.8l-3.8,0l-2.6-3.3l-0.7-3.1l3.3-3.1l1.6-0.1l4,1.5l-4-2.2l-3.5,1.6l-0.1-2.7l1.2-2.5l2.1-1.2
		l4.8-0.8l-0.9-2.2l-4.7,1l-0.2-3.7l-1.7,1.6l3.3-6.1l-1.4,1l-1-1.2l0.8-3.1l-1.3-2.7l0.5-2.9l1.1,0.2l1.1-2l2.1-2.2l-3,1.9
		l-2.5,0.7l-1.7,2.2l-2.1-7.9l1.3-2l-1.3-0.1l-0.5-2.5l2.5-3.9l3.3-2.2l-4.2,1.8l6-4.3l1.5-5.7l1.5-1v-2.4l-1.6-0.9V321l-2.6-3.4
		l-1.8-3.2l-1.2-0.5l0.6-2.3l-1-1.3l1.3-1.5l-1.4-1.4l1.2-0.9l-0.2-4l0.2-11.5l-0.7-4.6l-1.3-2l0.3-2.6l-0.6-2.7l-1-1v-1.9l1.1-1
		l-1-3.7l-5.4-0.5l-2.3,2.7l-1.5,0.9l-1.1-0.6l-4.3,0.6l1-3.7l-1.8-8l0.4-1.6l-1.1-2.2h0.1L206.4,296.6z M149.5,369.5l0.2,1.4l1.6-2
		l-0.1,1.6l-2.5,3l-0.6,4.6l-1.3-1l0.2-1.6l1.3-0.7l-0.8-2.1l1.1-1.4l-0.7-3.1L149.5,369.5z M148.1,354.9l-0.7,2.7l1.3-2.2l2.1,2.6
		l-0.1,1.8l-2.1,3.9h0.5l-0.3,1.9l-1.2-0.4l0.1-1.4h0.3l-0.4-0.1l1.4-3.2l-3.5,4.1l-0.5-5.3l1.1,2.1l1.2-4l-0.9-0.8L148.1,354.9z
		 M146.1,357.2l-0.7,0.3l-0.2-4l-1.4-5.8v1.8l-1.4-2.1l2.4-1.8l1.4,2.9l1.3,5.3h-1.2L146.1,357.2z M167.2,421.5l-2.2,1.6l-2.2-1.4
		l-4.8-4.2l-2.8-3.9l3.2-1.4l-3.9-0.1l-3-3.4v-1.8l-1.7-1.2l-0.8-4.3l1.6,0.1l-1.6-1.7l-0.3-2.7H146l0.8-2.5l-1.3,0.7l-0.4-2.7
		l-3.2-0.5l1.6-1.2l-2.2-5.3l0.1-2l4.1,0.3l1.6,1.1l0.3,2l2.7,2.8l5.3,3.5l5.5,4.9l-1.2,3.3l1.2,2.9l-0.8,0.2l1.2,3.8l4.9,4.3
		l2.3,4.9h-1.1L167.2,421.5z M132,350.7l-1.9,3.5l0.7,1l-0.8,4.2h1l0.4,3l-1.4,0.5l-1.1-6.5l-1.5-4.3l-0.1-2.8l-0.6-2.6l3.1,1.4
		l2.1-0.1L132,350.7z M129.4,334.6l3.8,3l-0.1,2.9l-3.3,0.5l1.7,1.4l1.9-2l0.3-1.4h3.5l-3.1,3.1l-2.3,4.2l-3,1.1l-1.5-0.7l-0.9-1.9
		l1.9-1l-2.2-2.5l1.2-1.6l-0.6-1.4L129.4,334.6z"/>
	<path class="st3" d="M360.3,208l-0.1-1.2l-1.3,1.3h-1.6l-1.5-2.6L355,207l-4-2.3l-1.5-0.5l-1.3-2.6l-0.5-2.5l1.1-3.6l-1.8-2.2
		l0.7-3.3l-0.5-2.2l1.6-1.5l1.3,1.3l0.5-2.2l-1.8-0.7l1.8-2.9l0.3-1.8l2-0.8l-1.8,0.6l-0.8-6.5l-2.1-3.4l0.1-3.9l-1-5.5l0.1-1.1
		l1.3-0.5l1.4,0.7l-1.8-2.2l0.1-1.4l1.5-1.3l3.2-1.2l2.8,0.1l1.9,1.4l2.1-0.7h1.8l2.8,0.7l-2.5,8.6l-1,4.5l-1.5,1.8l-3.6-0.5
		l-2.5,0.6l1,0.6l1.7,2.7l-1,1.8l-0.7,3.5l-1.4,0.5l0.9,3.7l0.5-1.6l1.8,0.1l-0.2,1.4l3.4,3l0.8,2.2l0.2,4l2.2,1.4l1.8,2.7l0.6,1.8
		l0.6-1.3l1.2,2.1l-1.8,0.7l-0.9-0.6l-1.1,1.4l1.6-0.4l0.7,0.6l-1,1.9l-2.1,2.3l2.5,0.1l2.1,1.8l1.2-2.3l1.5,1.6l1.7-0.5l1.9,0.9
		l-0.1,2.2l-3.8-0.1l2.2,1.8l1.8,2.5l-0.4,0.9l0.7,2.3l-0.2,1.8l1.3,0.5l0.5,1.5l0.9-1.8l0.6-3.2l-0.7-4.6l0.9-2.5l1.6-0.1l1.2,1.5
		l3.5,2.5l2,5.1l-0.3,1.6l-1.3-1.6l-0.8,1.2l1.8,5.4l4.2,4l0.8,1.2l1.7-0.5l0.4-2l1.3,0.1l-0.9-3.4l1.6-4.7l-0.5-3.1l0.3-1.1
		l-0.7-3.5l1.1-0.7l2.4-0.3l-1.7-0.7l1.1-1.5l-0.9-0.8l1.7-0.5l-3.7-1.1l-1.4-2.8l0.3-1.2l-0.8-0.9l0.3-2.4l1.2,0.5l0.5-1.2l2-0.5
		l2.6,0.9l-0.7-1.1l1.4,0.1l-0.4,1.1l3.9-0.8l-1-1.3l1.3-0.1l0.1,1.7l0.9,1.6l-2.7,0.3l3.9,0.2l0.9,1.2l3.4,0.1l0.6,1.1l-1.5,2.6
		l2.8,0.8l0.3,1.6l-2.2,3.1h-1.9l-0.5,1l1.7,0.3l0.2,2l1.5,0.1l0.5,2.6l3.5,2.1l1.4,1.6l0.4,5.5l-1.7,0.7l-0.3,2.6l-1.3,2.9
		l-1.6,0.6l-0.5,2.6l-1.3,0.3l-1-1.8l-1.8-0.7l-0.3-2.2l-0.5,1.5l-1.7-1.5l-0.1-1.1l-2,0.9l3.9,2l-0.1,1.1l1.4,1l2,2.8l-1.2,0.2
		l-1.4-1l-1.9,0.3l1.5,1.4l-4.1-0.1l-1.4-2.9l-1.7,1.2h-2.2l-1.7,1.8l1.1,1.1l3.8,0.8l-0.2,1.6l-1.6,1.9l0.2,2l-3.1,5.5l-2.5,0.5
		l-3.4-2.2l-1.4-0.4l-4.5-2.6l-1.5,0.9l-6.6,0.5l2.5,1.2l-0.5-1.2l5.3,0.6l2.5,1.6l2.7,2.9l9.4-1l0.8,0.9l-1.6,7.2l-0.9,0.6
		l-0.1,3.8l-3.1,3.2l-3-1.3l1.5,2l-2.8-1l-1.4-1.8l-0.4,1.6l0.9,1.6l-1.3,0.3l0.9,1.4l-1,2.7l-1.6-0.4l-0.2,2.7l-2.6-1.8l-2.7-0.5
		l-3.6-0.1l1.5,0.7l-1.5,2.2l3-2.6l2.6,2.2l3.1,0.5l1.3,3.5l-0.7,1.6l-1,0.1l-1.8,2.2l-3.7-0.5l-1.5,1.2l2.7,1.2l0.1,1.4l-2.5,0.2
		l0.1,1.4l-1.2-0.3l0.3,2.1l-1.7,1.3l0.9,0.7l-1.1,1.6l0.7,1.6l-2.9-1l2.1,1.6l-3.5,4.2l1,1.4l-1.5,0.1l0.8,1.1l-1.4,4.4l-0.6,3.6
		l-1.2,0.2l0.9,1.6l-0.6,4.5l0,0l0,0l-40.3,2l0,0l0.2-47.9l-1.2-0.3l-29.8-7.3l-3.4-1.2l-1.6-1.6l-4.4-7.1l-8.3-1.3l-29-35.9
		l-0.1-0.3l5-17l1.1,2.1l5.7,3.7l1.9,2.9l7.7,4.4l-1-1.8l1.6-0.3l3.3,2.2l1.7,2.2l1.8,4.1l-0.7,1.6l-3.9-1.1l0.7,1.2l-2-0.3l0.2,2
		l-1.9,0.6l1.4,1.8l1.4,0.2l3.7,2.1l6,1.2l0.5-0.7l3.3,0.8l3.2-0.7l3.5-2.2l1.1,4l2.8,0.3l0.6,4.2l0.6-2.7l1,0.7l1.9,3.1l0.3,2.7h-1
		l-0.3,2l3.5,6.1l-1.2-2.9l-0.7-4.9l1.6,2.5l0.2-1.8l1.1,1l-0.7-2.3h-0.8l-0.3-3.7l0.4-1.2l-1.5-2.3l-0.3,4.3l-0.6-2.5l1.2-3.6
		l1.1-0.6l-0.6-2.1l1.8,0.7l1.3-0.9l1.6,0.4l0.8-1.6l0.6,1.2l0.2-2.3l3-0.6l0.6-2.5l-3.7,1.1l-0.5,2.4l-0.7-1.2l-1.6,1.5l-1.6-1.1
		l-1.5,0.8l1,1.3l-3-0.1l-0.3-1.8l-1.5,0.3l2.6-3.7l4.1-0.5l4.3-2l2.1,0.6l1.1,1.7l0.1,2.2l-0.6,1.4l2.6,2.2h1.2l0.4,2.3l2.6,0.2
		l1.4-0.5l2.5,1.7l0.8,1.3l1.9,1.1l1.4-0.8l1.9,1.3l1.2-1l1.2,0.2l1-1.1l5.5,0.4l0.9,0.9l3.6-1.2l-1.6-1.6l0.6-1.6l2.2,3.7l2.7,1.6
		l-0.4-1l1.8-1.2l-2.6-2.6l-1.5,1.3L342,226l0.2-1.9l-1.8-2.2l2.1,0.7l1.9-0.9l-1.1-2l3,0.7l1.1,1.3l-0.2,1l1.6-0.4l0.9,0.7
		l-1.2,2.3l3.6-3.5l-0.9,5.5l0.3,2.3l-0.7-0.6l-0.3,2.5l1.7,0.3l-0.6,2.2l0.8,0.2l1.3-1.8l0.7,0.7l-1,1.7l1.3-0.8l1,2.8l-2.3,0.5
		L351,237l2.6,2.5l-1.2-1.8l3.5-0.1l-0.5-2.9l0.6-1.5l-1.2-1.8l-0.4-2l-1.1-0.7l0.7-4.3l2.5,0.3l1.9-2.7l0.4-1.6l3-3.4l-1.3,0.5
		l0.3-2.9l-1.5-1.4l-0.5,2.8l-2.1,0.3l-0.2-2.5l1.7-1.3l-0.8-1l0.1-2.1l1.4-0.3L360.3,208z M360.3,208v0.2l0,0l0,0l-1,2l0.3,0.9
		l1.5-2.7l-0.8,0.3l-0.1-0.5l0,0l0,0l0.2-0.3L360.3,208z M462.8,373l2-0.3l3.1,2l1.4,2.5l-2.4,0.1l-7.6-0.7l0.6-2L462.8,373z
		 M467.8,337.1l-0.3-4.2l0.5-0.3l1,2.8L467.8,337.1z M505,263.7l1.9,0.5l0.3,2.1l-1.2,1.9l-0.9-0.3l-0.8-3.8L505,263.7z
		 M512.4,243.8l-1.8-0.9l0.7-0.5l3.2,1.6l1.1,1.3l0.3,2.2l-4.5-0.7l1.4-2.2L512.4,243.8z M441.5,270.7l1.3,1.1l0.7,2.9l-0.6,5
		l-2.9-1.3l-1.1-1.5l-0.4-2.3l0.9-3.5L441.5,270.7z M509.4,235.5l1.3-0.8l0.2,2.1l-1.7,0.5L509.4,235.5z M480.4,248.1l1.7,0.1l2.4,1
		l-0.5,1.1l-1.9,0.5l-3.8-2.2L480.4,248.1z M442.1,257.1l3.7-0.7l1.5,1.4l0.1,1.1l-1.4,1.8l-4-2.2L442.1,257.1z M447.3,252.9
		l2.5,0.3l1.2,0.7l-0.3,1.4l-1.5,0.1l-2.8-1.2L447.3,252.9z M403.1,239l0.8,0.2l2.7,3.7l-0.4,1l-2.4-1.8L403.1,239z M406.1,237.4
		l3.5,1.4l-0.2,1.2l1.5,0.8l1.5-0.3l-0.4,1.2l-1.9-0.1l0.1-0.9l-2.1,0.3l-0.3-1.6l-1.4-0.8L406.1,237.4z M440.4,201.4l3.8-0.4l0.9,2
		l-3.9,1.8l-1.3-0.4l-1.4-2L440.4,201.4z M392.4,219.5L392,222l-1.2-0.5l-1.3-2.9l0.6-3l1.4,0.9L392.4,219.5z M316.2,221.5l-2.1-1.8
		l1.6-0.3l0.8,0.9L316.2,221.5z M435.9,197.4l1.4,2.2l-3.2-1.1l-0.2-2.4L435.9,197.4z M327.6,217.4l0.4,1.3l-0.8,1.2l-2-1.3l1.3-1.6
		L327.6,217.4z M334.1,215.1l0.2-1.8l0.6,1.1l-0.7,2.8l-0.7,1l-1.1-0.8l-0.1-2.2L334.1,215.1z M418.9,193.9l1.3,0.6l-0.6,1.2
		l-0.2,3.9l-1.2,1.5l-1.1-0.8l0.3-2l0.8-0.5l0.1-2.7L418.9,193.9z M424.1,191.6l1.6-0.3l-0.3,2.5l0.4,0.8l-1.4,0.3l-1.3-2.9
		L424.1,191.6z M348,207.7l1.9-0.2l0.3,2.5l-1.6-1.2L348,207.7z M351.7,206.8l1.3,0.9v1.6l-1.1,0.9l-0.3-2.7l-0.9,2.4l0.1-2.7
		L351.7,206.8z M419.6,190.1l-0.1,1.3l-1.2,1.6l-1.3,0.3l0.5-1.9l1.2-1.7L419.6,190.1z M412.7,190.9l1.7,0.7l-1.8,1.9l0.2,0.7
		l-1.6,0.3l-2.1-1.7l1.6-1.1l1.2,0.4L412.7,190.9z M384.4,195.6l1.3-0.3l1,1l-2.3,0.8l-1.4-1L384.4,195.6z M331.8,195.6h0.7l1.1,2.5
		l-1.7-1L331.8,195.6z M434.9,166.1l1.8-0.3l0.3,1.2l-1.9,2l-0.9-1L434.9,166.1z M344.4,166.7l0.7,0.7L344,169l-0.9-1.7l1-1.4
		L344.4,166.7z M321.8,141.7l0.5,1.4l-0.9,1.3l-1.1,0.5l-2-1.4l0.8-2.6l1.6-1L321.8,141.7z M343.6,136.8l1.2,1l-0.8,1.3h-0.9l-1,1.4
		l-0.7-1.6L343.6,136.8z M326.8,133.6l-1.9,2.5l-1.7,0.1l0.9-1.8l2.4-1L326.8,133.6z M349.1,134.9l-1,0.3l-1-2.2l1.1-0.7
		L349.1,134.9z M390.5,120.7l0.7,0.3l-0.5,1.6l1.2,1.1l-1.2,0.2l-0.1,1l-1.1-0.5L390.5,120.7z M331.5,124.8l-2.7,1.9l-0.9-0.4
		l1.9-1.7L331.5,124.8z M360.6,124.1l-0.9,0.5l-1.8-2.5l-0.1-0.9l1.3-0.8l1,0.8L360,123L360.6,124.1z M340.1,75.5l0.9,0.2l-0.2,0.9
		l-2-0.4L340.1,75.5z M454.8,174.4l-0.1,0.3l-0.1-0.3l0,0l0,0H454.8L454.8,174.4z M337.3,156.3l3.2-1.2l0.3,0.5l-1.5,2.3l-2.6,1
		l-1.6-1.2L337.3,156.3z M321.4,133.9l4.4-1.6l0.3,0.3l-0.1,0.7l-3.8,1.4L321.4,133.9z M320.6,130.6l4.4-1.1l0.3,0.5l0.3,1.4
		l-0.9,0.9l-2.8,0.5l-1.5-0.5L320.6,130.6z M320.7,125.2l1.1,0.6l2.3,1.9l-0.8,1.6h-2.9v-1.8l-0.6-1.6L320.7,125.2z M355.3,111.2
		l1.5,0.1l1.8,1.8l0.5,1.6l-0.9,1.6l-2.4-0.8l-0.9-1.1l-0.3-2.5L355.3,111.2z M318.3,112.5l1.1,2.2l-0.1,1.4h0.7l0.8,1.4l-0.2,1.8
		l-0.8,0.5l-1.9-2.5l-1.1-5.2L318.3,112.5z M329.1,111.3l0.7,1.2l-1.6,0.2l-0.6,0.6l-1.6-0.7l0.2-1.8l1.8-0.1L329.1,111.3z
		 M331.9,83l0.7,0.5l0.7-0.3l1,2l0.2,2.2l-0.3,1.4l-1.1-1l-0.7-1.7l-1,0.3l-0.3-1.9L331.9,83z M348.9,114.5l-1.1,0.4l-1-0.3
		l-4.2,0.4l-0.9-1.4l0.1-1.4l0.8-0.7l1.1-0.7l0.2,0.7l1.1-0.7l3.4-0.2l1.1,0.5L348.9,114.5z M454.8,174.4l0.7-1.6l0.9,0.5l-0.2,1.5
		L454.8,174.4L454.8,174.4z M299.2,173.1l0.7,0.2l-0.6-0.7l0.1-0.3l0.7,0.3l-0.6-1.5l0.1-0.9l0.7-0.2l-0.7-0.3l0.4-2.7l0.7,1.3
		l3.4,4.1l-0.4,2.4l0.7,2.5l-0.3,1.8l0.8,0.5l-0.5,1.7l0.9,2l0.9,0.1l0.7-1.6l1.1-0.2l0.1-1.2l-1.6-2.9l0.4-1.6l-0.7-2.7l0.5-0.6
		l-0.5-2.2l0.2-5.2l1,0.3l-0.5-2l1.3,0.5l1.5,1.6l1.1-1.3l1.9,2.8l1.3,1l1.4,2.7v3.9l1.1,3.3l-0.4,0.7l2.1,6l0.3,2.8l-0.8,0.4
		l-0.6,2.3l1.9,2.7l0.5,1.8l3.1,2.8l0.1-1.9l1,1.9l3.4,2.9l1-0.5l0.7,2.3l1.8-1l0.8,4.5l-0.4,1.6l-1.4-0.1l-0.6-2.5l-0.8,2.9l-2-2.9
		l-0.7,1.6l-0.9,0.2l0.3,2.1l-1.1,0.3l-2.6-2l-0.3,1l2.6,2.7l1.5-1l1.6-0.1l-0.5,1.6l1.7,2.2l-0.9,2.2l-4.3,1.9l-1.8,0.1l-4-1.9
		l-0.6,0.9l-2.8-1.2l1.5-1l-3.8-1.7l-2.1-0.3l0.5-2.5l-1-1.2l-1.6,1.5l0.1,1.4l-1.8,2.3l-2.6,0.7l-2.4-0.3l-1.9,2.2l-2.9,0.8l-4-0.3
		l-0.6,1.4l-1.6-0.1l1.5-1.1l-7.6-0.3l-0.8,0.4l-2.2-1.8l-0.8-2.6l0.9-2.7l-0.3-1.8l-2.6-1.6l-3.2-0.2l-3-1.3l-2.1-2.4l-0.4-2.3
		l0.8,0.4l-1.3-3.3l0.4-1.2l16.1,3.3l-0.2,1.9l1.6,0.1l0.1-1.7l9.7,1.4L299.2,173.1z M304.2,132.9l1.7-0.9l0.5-1.2l-0.9-1.5
		l-0.9-0.2l0.4-3.1l1.4-1.5l1.2-2.2l1.2-0.4l0.6,2.2l-0.8,0.4l0.4,2.3l0.9,2.1l-1.4,2.8l1.8-0.1l0.5,1.2l-0.8,0.7l2.4,0.4l0.4,1.5
		l0.2-2.1l0.9-1.3l2.3,1l0.7,1.2l0.2,2.8l-1.1,2l0.2,1.6l-1.3,2.7l0.1,0.8l-2.3,0.5l-0.8,0.9l-1.5-0.4l-0.4-1.3l-1.2,1.2l-1.1,0.1
		l-1-2l-2.6,2.2l-1.3-0.1l1-8l3.1,1l0.4-1.5l-0.6-1.6l-2.4-1.8L304.2,132.9z M307.5,106.8l1,0.7l-1.2,1.4L307.5,106.8z M308.3,99.7
		l1,1.4l0.4,1.6l-0.6,1.8l-1.4-0.5l0.5-4.1L308.3,99.7z M523.3,255.7l0.1,0.5l-2.5-0.4l0.9-0.9l1.7,0.5L523.3,255.7z M462.8,337.8
		l1.1-1.2l0.3-3.1l0.8-1l1.6,3.2l-0.6,0.2l-0.5,4.4l-1.1,0.2l-0.5-2.5l-0.9,3.7l-1-0.5L462.8,337.8z M504.1,232.7l2.8,1.7l1.2,1.8
		l-1.3,0.3l-1.3-1.8l-6.4,0.9l-1.6-1.1l-0.5,1.2l-5.1-1.5l-2.5-1.2l2,2.1l-3.1-0.9l-3.6-0.3l-1,1l1.3,1l4.9,2l0.5-1l1.7,1.4l1.8-0.1
		l3.7,1.4l0.8,1l0.9-0.9l3.1,1.2l2.1,1.4l1.3-0.1l0.1,2.4l1.5,0.6l-1.2,1.2l-3-0.2l-1.7,0.7l-1.7-0.4l-6.1,2.1l-2.9-0.1l-4-1.4
		l0.4-1.5l-2.7,0.9l-1.1,1.2l-1.7-0.5l-3.6,0.3l-3.5-0.7l-1-1.6l-2.2-0.2l2.1-0.7l1.1-2.3l-1.5,0.4l-0.5-1.3l-1.9,1.4l-2.4-2.4
		l-0.1,1.7l-1.3,0.3l-2.2-1.6l-0.3-1.1l-2.3-1l0.7,2l-2.8-3.5l0.3,2.5l-1.2-2.5l-1.3,0.1l1,3l-2-4l-1.1,2.5l-0.1,2.3l-6-0.3
		l-0.5,4.1l-2.1,1.3l0.3,0.7l-2.5-0.3l-0.8,1l-2.8-0.5l-2.7-2.4l-0.1-1.9l-0.9-1.4l0.5-1.4l2.2-2.7l-1.4-1l-0.2-1.5l3.5-0.8l4.8,0.4
		l1.9,0.9l-0.3,1.6l2,2l0.4-0.5l-1.4-2.5l-1.5-1.4l-2.4-0.9l3.5-0.7l-0.2-1.6l2.4-0.3l1.5-3.1l2.8-0.3l-2-2.4l-2.1-0.7l-3.3-2.2
		l2.4-6.1l0.8-3.3l-0.5-3.1l1.4-1.6l-0.2-1.8l-1-0.3l-1.2-1.9l-1.7-1.4l-0.3-1.1l-1.9-0.7l-1.7-3.1l-3.1,0.5l-1.3-0.7l-0.3-3
		l-2.1,0.1l1.9,1.4l-1.1,1l-1.5-0.4l-0.9,0.9l-0.6-1.2l1.3,0.2l-1.8-2.6h-1.4l0.7-1.8l-1.2,1l0.2,1.4l-1.9-0.9l0.2,1.7l-1.9,3.1
		l-1.1,0.6l-0.5-2.2l-1-1.3l0.6-0.8l1.8-0.1l1-1.4l-1.1-2l-4.6-1.3l-2.6-0.3l1.2-1l-0.7-1.1l-2.5,0.3l-0.6,0.7l-1.4-3.9l-1.1-0.6
		l-1.6,1.2l-2.2-2.1l-1.5-0.4l0.1,1.1l-1.2-0.2l-0.1,1.3l2.4-0.1l2.3,3l-0.4,1.6l-2.7,1.5l-1.4-1.1l-1.7,0.4l-3-0.3l-2.6,0.5l1.6,1
		l0.9-0.3l2.4,2.2l-0.4,0.6l-3.4-2l-2.9-0.8l2.6,1.4l-1.2,1.7l-1.2,0.1l-2.9-1.1l-2.1,1.3l-4,0.4l-2.8-0.4l-1.6,0.5l2.4,0.7l-2,0.4
		l-3.5-2l-0.4-1.3l-1,0.6l-1-1.5l-0.7,1.1l1.2,1l-3.1,0.1v1.2l-1.8-0.7l1.5-0.1l-3.4-1l-3.7-4.5l0.8-0.5L372,187l1.7,0.3l1.7-0.6
		l1.4,0.9l3.5-0.7l0.2-0.7l-2-1.1l-0.6-1.3l-0.8,0.7h-6.5l-1-1.4l0.4-2.1l0.4-1.8l-1.4-1.6l0.1-1.8l1.2-1.4l-1.5-0.8l-0.1-3.7
		l0.6-0.7l-0.4-2l1,0.3l-0.7-3.3l0.4-2.5l1.4-3.6l1.6-2.6l3-2.2l2.1-0.6l3-0.2l1.1,0.5l-0.2,1l-1.5,2.2l-0.9,2.7l-0.9,6.1l0.5,2
		l1.6,1.3l0.6,1.2l-0.2,2.3l0.7,2.2l1.6,2.2l3,2.6l2.1,0.5l0.8,1.6l-1.1,0.3l-1,1.4l-1.5,0.4l-0.6,1.3l-2,1.4l1.9-0.5l1.5-2l3.2-1
		l0.3,2.8l0.7-0.8l-1.1-3.4l0.4-2.3l-1.3-2.2l-1.8,0.6l-1.5-1.1l-0.3-1.3l-1.8-1l1.6-1l-0.5-2.1l1.5-0.2l3.6,1.8l-3.4-2.3l-0.5-0.8
		l-1.9-0.6l-1.1-1.7l-0.7-3l0.3-1.1h1.3l3.4,0.9l-3.7-1.6l-1.2,0.1l0.8-1.6l2.6,0.3l2-0.3l-2.5-0.3l-2.4-0.7l0.7-2l1.9,1.4l-1.3-1.7
		l4.7-5.5l4.1-1l1.5,1.6l1.4,3.1l1.8,0.4l0.9,2.7l1.9,1.7l-0.3,2l0.8,2.2l-0.9,2.5l1.7,0.7l-1.5,0.5l1.3,0.9l1-1.2l-0.8-1.4l1-4.4
		l1.4,1.6l0.8-1l1.5,1l0.5,2.2l-0.2,1.4h1.9l-1.1-1l-0.6-2.2l0.5-1.7l3,0.3l-3.2-1.1l-0.3-1.8l2-2.9l2.3-0.7l1.2,0.8l5.3-0.4
		l1.9,2.2l-0.6,3.4l0.8-1.9l2.9-0.6l0.9,1l0.2,1.8l-2.1,2.5l1.7-0.1l-0.1,2.5l1.3,0.3l-1-1.5l0.2-1.6l1.5-2.1l1.1-0.3l-0.1,3.5
		l1.2-1.4l0.3,1.4l2.8,0.9l-0.2-1.6l-0.2,1.1l-0.8-0.1l-1.1-1.6l0.9-0.5l0.3,1.4l0.1-1.2l0.8,0.4l-0.1-0.9l-1.2-0.2l1.2-1.6h3.9
		l2.8,1.8l-0.1,2.6l-2,0.9l-0.1,2.7l0.7,1.2l2.8-3l-0.2-1.9l0.8-1.4l1.8,1.3l0.2,2.7l-0.8,2.2l-1.1,0.1l-0.1,1.6l0.8,1.9l-0.5-3.1
		l1.3-0.2l1.5,4.6l-1.3-5.9l2.3-4.4l0.6,1.5l-1.1,2.2l1.6-0.5l0.6-2.7l1.9-0.3l3.2,0.1l0.8,2.4l-2.7,3l-1.2,3.1l0.9-0.2l-0.7,1.7
		l1.4-1.2l-0.6-1.9l3-2.5l0.6,0.5l-1.1,4.9l1.9-3.2l0.9-2.3l-1-0.7l0.4-1.6l2.7,0.8l2.2,1.4l1.6,2l-2.5,0.7l-1.2,1.6l0.3,1l0,0l0,0
		h-0.3l-1.4,0.7l-1.2,2.5l2-2.2l2.7,0.1l0.9-2.4h1l-0.3,1.4l1.1-0.5l2.2,0.3l1.3,1.3l-3.5,2.1l-2.6-0.3l-3.1,1.2l3.9-0.2l-1.3,0.7
		l3.6,0.1l-0.7,1.3l2,1.4l-5.2,2.3l1.3,0.1l3.4-0.9l-0.7,1.6l3.6-1.2l2.8-0.2l0.1,1.2l1.4,0.3l1.6,1.8l-0.7-2.4l0.9-1l1.6,3.3
		l0.7-1.3l1.3,2l-0.4-1.8l1.2-1.2l0.6,0.7l0.8-2.4l1.3,0.1l-0.6,2.2l0.9,1l0.5-1.8l1.6-0.2l3.7,1.1l-0.4,1.1l1.2,1.3L481,191
		l2.4-1.6l-1.2,1.9l2.1-2l0.3-2.5l3.1-0.2l-0.5,1.5l1.2,2.5l1.1-1.8l1.4,1.4l-0.2-2l2.5,1.4l-1.7-1.6l-0.2-1.5l2-0.4l3.9,1.4
		l0.3,2.6l-1.1,1.6l2.2-0.9l-1.2,2l-1.7-0.3l-1.8,0.7l2,0.4l-0.4,1.3l1.9-0.3l1.6,0.7l-1.5,1.7l1.5,1.1l0.3,2l-2.6,2.2l-2.2-1.4l2,2
		l-0.5,2.2l2.8,1.4l1.2,3.5l-2.2-0.4l-0.5-1.4l-1.5,1.8l-2-1.8l0.9,2.6l-2.9-1.6l-2.8-1l-0.2-1.2l-1.2,0.4l-1-2.5l1.3-2.4l-0.6-0.9
		L486,204l-1.8,1.5l-1.2-1.4l-3.4-1.1l-1.3,0.3L477,202l-2,1.1l2.3,1.7l-0.9,0.8l-2.9-0.5l1.7,1.8l3.5,0.8l0.6,1l-2.8,2l-1.2-1.6
		l-1.9-0.7l-1,0.7l3,0.9l-1.3,0.2l1.9,2.2l2.2,0.7l0.2,2l1-3.5l1.2,0.1l0.1,1.9l1.7-0.6l1.4,2.7l-0.2-2l1.3,2.6l0.9,0.1l1.9,2.1
		l-1.3-2.3l3.2,0.4l0.8,1.9l-0.1-2.5l2.2,0.3l0.8,1.9l0.5-2.5l1,0.9l-0.6,1.6l2.4,0.1v1.6l-1.3,0.3l3.5,1.3l-0.3,0.8l2.6-1v1.8
		l0.8-1.4l0.4,1.2l1.3-0.5l3,4l-3.5-3.1l-2,0.1v0.5l2.6,0.1l2.2,3.9l-1.4-0.1l-2.6-2.5l-0.1,1.2l5.8,4.8l-0.9,1.2L504.1,232.7z
		 M422.9,278.3l-1.6,1.7l-2.2-3.4l1.1-2.8l0.6-2.9l1.1,0.6l1.6-1.5l3-1.3l1.4,0.1l0.3,2.2l-1.3,2.1l-1.4,3.7l-1.5,2L422.9,278.3z
		 M437.5,202.3l0.1,1.9l1,1.3l1.1,2.8l-0.5,2.6l-1.5,1.9l-4.4,2l-1.5-1.6l-1.7-2.8l-0.2-1.9l0.4-5l1.2-1.4l2.8-1l2.1,0.1
		L437.5,202.3z M313.4,165.6l-1.4-2.4l-1.6-0.9l1.6-2.6l4.7-0.2l2,2.3l-0.4,2.9l-2.6,5.3L313.4,165.6z M415.4,259.6l1,2.7l-1.6,2.2
		l-1.1,0.2l-0.6,3.9l-2.8,2.9l-2.1-0.8l-0.8-4.2l-1.3-0.9l-2.2,1.4l-1.8,0.3l-0.8,1.3l-1.5,0.1l-0.4-1.6l0.9-2.5l2.9-2.7l-1.3-2.1
		l-1-3.1l0.4-4.1l-1-3.8l-0.2-5.5l1.6-2.3l0.4,1.4l1.3-0.5l1.2,2l-1,1.1l1.3,0.7l1.7,2.4l0.4-3.3l2.4,1.2l0.6,1.3l3.4-0.1l1.5,1.8
		l2.8,1.2l1.6-0.3l3.6,1.9l1.1,2.7l1,0.1l-1.5,3l2.7-1.6l2.5-0.1l-0.4-1.2l2.2,1.1l-0.3,1.2l2.4,0.1l-1,1.3l-1.6,3.9l-5.8-1
		l-1.9,0.7l0.1-2l-1.2-1l-2.4,1l-0.5-2.7l-2.2,1.6L415.4,259.6z M350.6,211.3l1.2,3.9l2.7,0.1l-1.1,2.1l-1.2-0.5l-1.7,3.1l-0.9,0.4
		l-2.2-1l-1.8,0.3l-1.3-1.3l-1.5-0.2l-0.6-1.6l-1.1,1l-1.4-1l-0.6-1.4l-0.7,1.5l-1.7-2l0.4-1.2l1.9-0.3l2.4-2.1l-0.9-1.4l0.2-1.7
		l2.2,1.4l-1.5-1.7l0.5-2.2l1.1-1.2l2.6,2.2l1.7,2.2L350.6,211.3z M411.2,151l0.6,1.6l0.8,0.2l-0.5,1.2l-3.7,0.7l-2.5,0.7l-2.6,2.7
		l-1.3,0.4l-1.5-0.5l-1.5-2l-0.7-2l-2,0.1l-1-1.8l-0.8-3.1l0.9-1l3.6,0.5l3.9-1.9l3.5,0.7l1.2,1.5l1.3,0.1l0.8,1.4L411.2,151z
		 M329.6,176.4l-0.8,1.1l-1.4-1l-0.4-2l-2.2-1.9l-0.5-1.8l1-2.7l1.5-0.5l1.7,2.2l0.9,2l2.9-0.3l0.1-1.6l1.3-1.1l-0.7-1.9l-1.3-0.2
		l0.9-2l-1.7,0.7l-2.6-2.7l1.3-1.4l1,0.1l0.8,1.4l0.5-1.4l-1.6-1l0.5-1.8l1.5-0.1l1.3,0.9l-0.6-1.8l1.3-0.2l0.4,1l1.6,1.2l3.6-1.1
		l0.6-1l2.1,0.3l1.1,1.4l-0.1,1.3l-1.3,1.2l1,1.6l-1.8,1.2l-1.9,3.1l-0.1,1.6l1.3-1.6l2.5,0.8l0.1,1.3l0.9,0.8l0.8-1.5l1.3,2.9
		l0.7,2.5l-1.2,1.4l0.4,0.6l0.4,4.9l-1.4,0.5l-0.4,1.2l-1.3,1.1l-2.8-0.3l0.7,1.5l-0.6,1.4l-1.7,1.6l-0.9-1.2l-1.1,0.3l-0.7-2.2
		l-1.7-3.5l-0.6-0.1l-2.2-3.7l-1.1,0.2L329.6,176.4z M343.5,142.3l1.4-2.5l0.3-1.4l2.5-2l1.5,0.3l3.1,3.7l-0.2,0.7l1,3.7l-0.3,2.8
		l-3.4,0.7l-1.2-0.5l-0.8-1.3l-1.8-0.1l-1.6-1l-0.8-0.8L343.5,142.3z M328.8,138.3l-0.3-0.3l-3.4,1.3l-0.2-2.2l1.3-0.5v-1.7l1.2-0.5
		l1.3,1.5l-1.6-3.6l1.5-2l-2,0.3l-0.3-0.9l1.1-2l1.1,0.3l0.9,1.2v1.2l2.1,2l0.6,1.7l0.9-0.4l-1.2-2.2l1.5,0.1l-0.9-1l-1.4-0.3
		l1.2-0.9l-0.8-1l-1,0.1l-0.9-1.5l1.9-1.8l1.7,0.1l1.4,2.1l0.6-2l3.5,1.4l-0.2,2l0.9,1.9l-0.3,2.5l0.3,1l-1,1.5l1.7,0.7v1.9l0.5,1.4
		l-1.4-1.9l-0.8,3.3l1.5,1.6l-1.2,0.5l-0.2,1l-4,0.6l0.1-1.6l-0.9,1.8l-1.6,0l-0.3-2.7l1.2,0.1l-2.3-1.4l1.1-0.3l-0.9-0.7l2-0.3
		l-0.7-0.8l1.3-0.3v-1.3l2.6-0.7l-4.7,0.9L328.8,138.3z M365.2,136.4l0.4-0.7l-0.7-1.4l0.8-0.7l1.5,1.9l1.1-1.6l0.9,0.9l0.1-1.5
		l3.3,1.5l-0.5,0.8l2.2-1.2l-1.2-0.7l1.3-1.4h0.8l0.6-1.1h1.4l1.7-3l2,0.5l1.7-1.8l3.6-0.3l-0.1,1.4l2.1-0.7l1.9,1.1l-0.8,1l2-0.8
		l1.3,1.9l-0.1,1.4l-1.8,2.3l1,0.4l1.5-1l1.1,1.4l-2,2.2l0.8,1.4l-0.9,1l-2.3,0.8l-1,1.6h-3.7l-1.5-3l-1.5-0.3l1.1,1l0.2,2.5l-2,1.5
		l-3.2,1l-0.6-0.3l-1.8,1.1l-2.2-0.3l0.8,0.7l-5.9,1l-0.3-3.1l-0.7-1.6l-0.5,3l-0.5-1.5l-0.2,2.2l-2.3,1.4l-3.6-1.4l0.4-2.2
		l-1.1,2.1l0.6,1l-1.3,0.1l-1.8-1.4l-0.9-4.2l-1.2-0.7l0.1-3.6l0.7-1.2l-1-3.4l-1.5-1.3l-0.2-1.1l-1.7-2.8l-2.5,1.6l-1.9-0.5
		l-0.8,1.2l-0.7-0.7l1.2-0.7l-2.8-0.4l-0.7-1.8l-1.4-1.5l-1.1-0.1l1.4-1.4l-1.3-0.6l-0.2-1.4l2.7-1.3l1.6,0.7l1.8,0.2l1.2,0.9
		l1.1-0.5l1.6,1.8l-0.1,3.4l0.6-2l1.1,0.2l3.2-1.6l2.6,1.1l0.4,1.1l-2.5-0.1v0.7l2.7,0.1l3.4,0.7l0.1,1.4l-5.1,1.2l3.1,0.6l-0.2,0.5
		l-2.3,0.3l0.7,1.2l0.2-0.9l2,0.3l0.4-0.9l2.5,2l0.2,1.9L365.2,136.4z M342.5,109.8l-2.2,0.6l-0.3,1l-0.7-0.7l0.2-0.8l-2-1.3
		l0.2-0.7l1.8,0.1l0.2-0.7l-2.5-1l-0.6-2l-1-1.1l0.9-1l-0.7-1l-0.2-1.5l0.5-0.5l1.6,0.1l3.2,1.9l-0.2,1.1h1.4l1.5,0.7l0.8,1
		l-1.2,1.6l1.3,1.5l-0.3,1.7L342.5,109.8z M318.9,94.9l0.6-2l0.6,0.5l3.2-0.7l1.8,1.7l0.6,1.6l0.2,2.7l0.3-1.6l1.8-0.8l1.5,1.8
		l-0.5,1.4l0.7,0.6l1.2-0.7l1.2,1.6l-0.4,0.7l1.2,0.4l-0.7,2l0.2,1.6l0.6,0.1l1.4,2.5l0.2,2.3l-0.4,0.6l-1.8,0.7l-1.7-1l-0.4-2.6
		l-0.8-1.5l-2.6-1l-1.5,0.6l-0.7,1.4l-0.5-0.9l1.1-0.7l0.2-1.5l-2.2,0.7l-0.7,0.9l-1.3-0.4l-0.8-1.1L320,103l1-0.9l2.7,1l0.1-3.4
		l-0.8,0.5l-0.9-0.6l0.9-1.2l-0.5-1.2l-0.9,0.3l-1,1.9l-0.4-0.3l0.9-2.2l-0.6-0.6l-1.4,0.3L318.9,94.9z M348,100.8l-1.7-2l1.8-0.2
		l-2-0.5l-1.1-1.5l1.4-1.4l0.7-1.4l3.1-0.4l3.2-1.4l-1.5,0.1l-2.2,0.9l-1.3-0.3l0.1-0.8l1.6-0.7l-1.7-0.2l-0.2-0.9l-1.8,1.4
		l-0.8,1.4L345,92l0.6-0.9l-1.4-0.1v1l-1.5,0.8l0.1-0.7l-1.4-0.5l0.2-1.9l1.8-0.8l0.8-1.9l-1.8,1.5l-1.5,0.1l-1.8-2.7l1-0.4
		l-0.9-0.4l-0.5-2.4l1.5,0.8l2.5,0.1l0.1-0.7l1.4-1.2l-1.2-0.3l-0.6,1l-0.9,0.3l-0.6-1.4l-0.7,0.6l-1.3-0.8l1.2-1.5l0.9-0.1
		l-1.3-1.1l0.1-1.2l2-0.5l2.2,0.8l-0.2-0.9h-1.1l-0.2-1.5l-2-0.8l0.6-1l-0.7-0.2l0.4-1.4l0.6-0.6l1.1,1l0.7-1.1l-0.8-0.5l2.3-0.2
		l-0.3-1.4l-1,0.2l-1.3-0.5l0.3-1.4l1,0.3l0.7-0.5l2.1,1.2l1,1.1l-0.1,1.1l1,1.1l1.3,2.7l0.8,0.4l0.3,1.7l2.8-0.1l0.7,0.7l-0.1,2
		l0.7,1.2l2.1,0.8l-1.6-2.1l0.1-1.9h1.6l0.9,2.8l-0.8,0.7l0.4,0.8l1.4-0.3l1,1.8l0.5,4.2l1-1.2l1.4,0.7l1-0.4l0.7,1.4l1.5,1.6
		l-0.9,1.9l-1.9,1.7l-0.2,1.4l-0.8-1l0.5,1.6l-0.7,3.3l-0.8-0.1l-1-3.1l-0.5,0.2l0.8,3.2l0.7,0.7l0.1,2l-0.3,2.6l-0.2-2.7l-1.2-1.6
		h-0.5l1,2.1l0.1,3.1l-0.7,0.1l-3.2-4.7l0.5,2l0.5,0.4l1.3,2.7l-1.2-0.5l-0.8-1.1l-0.5,0.5l0.4,1.7l-1.3,0.2l-2.9-0.3l-1.6-1.3
		l-1.1-1.4l0.2-0.6l2.6-1l-2.7-0.6L348,100.8z M386.4,101.7l1.3,1.2l-0.4,3.1l-1.7,1.7l-1.4,0.1l-0.6,0.7h-2.2l-2.7-1.4l-0.1,1.1
		l1.7,0.8l-1.5,1l0.7,1.4l1.2-2l3.1,0.2l1.3-1l1.6,1.1l-0.2,2.3l1.3-0.4l0.1,1l0.9-2.5l1.2,0.1l1.1,1.4l0.5,1.8l-1,3l-1.2-1.1
		L389,119l-0.6-0.1l-2.4,2.7l-1.3-0.3l0.3-2.2l-0.9-0.9l-2.6,0.7l-0.7-1.3l0.2,2.7l-1.3,0.5l-2.6,0.2l-1.9-1.8l0.4,2l-1.3,0.2
		l-1.2-1.1l0.7,1.6l1.7,1l-2.2,0.5l-3.4-0.3l0.1-1.7l-1,1.6l0.2,1.4l-2.1-0.8l-0.3,1.6l-2.2-0.3l-1.4-4.8l-0.2,1.3l1.1,2.3l-0.9-1
		L363,125l-2.5-1.6l0.5-1.4l-0.7-2l1.8-2.2l0.8-1.6h1.8l1.4-2.3l-2.2-0.6l-0.3-1.6l-1.7-1.5l-0.4-1.9l2.1-1.8l2.7,0.7l0.8,0.8
		l1.1,2.3l1.2,1l2.7,0.5l-0.6-0.9l1.3-0.6l1.6,0.2l-1.2-1.2l0.8-0.7l0.6-2.9l0.1-3l-0.9-0.4l-0.2,5.2l-0.9,1.7l-2.2,0.2l-0.5,1
		l-1.1-1.4l1.2-0.3l-1.3-0.5l-0.2-1.7l-1.6-1.4l1.1-1.6l-0.2-3.5h-0.5l-0.6,3.1l-1.6,1.1l-0.3-1.2l-0.8-0.3l-0.4,1.1l-1.7,0.3
		l-0.8-3.8l0.5-1.4l0.1-2.1l0.5-1.3l1.8-0.7l0.9-1.3h3.6l2.7,1.1l1.4,1.2l-1-1.5l-1.7-0.7l-0.2-0.6l1.9-0.3l1.3-0.8l-0.1-2.4
		l-0.8,0.6l-0.2,1.4l-0.8,0.6l-1.1-0.3l-3,0.7l-1.3-0.7l0.2-1.4l1.5,0.9l1.2-0.1l-2.5-1.4l-1-2.5l-1.1-0.7l-0.7-1.4l-1.5-0.7l-2-0.3
		l-0.2-2.5h2.3l-2.7-0.4l-0.8-1.6l-0.1-2.1l1-0.5l1.4,0.5l3.1-0.6l1.9,1.7l2.7,1.9l2,2.8l0.4-0.7l1.7-0.1l1.2-1l0.2-0.8l-2.1,1.4
		l-1.5-0.3l-1.1-2.1l0.3-0.7l-1.7-0.3l-3.1-3l2-1.7l2.9-1.8l0.4-0.8l3.6-2.2l-3.7,1.2l2-2.9l1.6-1.3l1.7-0.9l-0.3-0.7l-2.6,1
		l-1.3,1.2l-0.7-1.8l0.9-4.5l0.7-1v-1.1l-1.6,2.7l-0.8,4.4l0.4,0.2l-0.2,2l-2.2,3.3l-2.9,2l-0.7-1.3l1.5-1.4l-0.1-1.4l-0.8,1.5
		l-1.2,1l-1-0.4l0.5,2.3l-1,1l-1.4,0.4l-2,0.1l-1.4-0.5l0.1-1.4l0.8-3.1l0.9-1.2l4.1-2.6l0.5-0.8l-3,2l-2.1,1l-1.2,1.2L356,73
		l-0.1,1.3l-1.7-0.2l-3-1.9l0.1-1l1.5-0.9l1.6-0.1l1.6-0.7l1.6-2.8l1.2-1.5l-1,0.1l-1,1l-0.9,1.7l-1.5,1.1h-0.9l-3.6,1.6l-1.3-1.8
		l0.5-1.1l1.1-0.2l-1.2-1l1.1-1.1l0.4-1.2l1.6-0.8l-1-0.4l-0.9,0.8l-2.4,2.6l-0.8-1.1l1.9-2.5l-0.9,0.3l-1.1-0.5l-0.3,1.5l-0.8,0.3
		l-1.1-0.9l0.6-1.9l0.8-0.1l-0.1-1l2-1.4l0.9,1.2l0.6-3.2l1-0.8l1.1,0.1l0.5,1.4l0.7-0.5l-0.4-0.7l1.4-0.2l1.8,2l-0.9-1.4l1.6-0.5
		l-3.7-1l-0.5-1l1.9-0.7l0.4-0.7l-1.2-2l1.6-0.6l-0.2,0.8l2.3,0.4l1.9,2.4l-0.1,0.7l1.7-0.3l-0.9-0.2l-1.2-1.4l-0.2-0.8L360,52
		l1.8,1.2L365,54l1.4,1.5l0.5-0.1l-1.8-1.6l-0.1-0.5l-2-0.3l-3.9-2.5l-0.1-1.7l1.6-0.3l-1.6-0.7l0.1-1.2l1.2,0.2l1.2,0.9l0.4-0.4
		l-2.4-2.4v-0.5l1.9-0.1l0.8,1.3l0.1-0.7l1.4,0.2l0.9-0.6l-2.4-0.2l0.1-0.9l-1.2-0.1v-1l1-0.8l1,1v-1l0.7,0.8l0.8-1.1l1.3,0.3l1.7,2
		L369,44l0.3,1.8l0.3-2.5l-1.3-0.3l-1.7-1.9l-1.5-0.9l1.5-1.5l1.6-0.5l1.4-0.1l1.2,1.4l2.7,1.1l-2.7-1.9l0.2-2.2l0.4-0.5l1.3-0.7
		l1,1.8l1.4,0.2l-1.7-1.2l0.4-1.5l1.5-0.8l0.9,1.4l0.5-1.1l0.5,0.7l0.9-0.7l0.3,0.5l0.7-0.7l1.8-0.7l0.4,0.5l-0.4,2l-1.1,2l0.1,0.7
		l1.5-1.2l1-3.3l1,0.4l-0.4-1.6l0.5-0.5l0.5,0.9l0.9,0.5l-0.1-1.2l1-0.5l0.5,1.4l1.8,0.7l0.7,0.7l1.9-0.9l1.4,0.6l1.1,2.2l-0.6,1.3
		l0.5,1.4l-1.1,5.2l-1.8,0.5l-0.6,1.4l1.1-0.5l-0.4,1l-1.2,0.8l-2.1,2l-0.3,0.9l1.7-1.8l1.4,0.2l-1.5,2.7l-0.3,1.1l-1.8,3.1l0.9-0.8
		l4.2-6.9l1.5-1.8l0.8,1.8l-0.4,2l-0.7,1l0.1,2.7l-1,4.6l-0.2,3.3l0.4,1.8l-0.3,0.7l-1.2,0.6l-0.7-1.3l-1.3-0.3l1.6,1.1l0.3,0.8
		l1.3,0.5l-0.1,1l-1.1,0.3l-1.8,3l1.1-0.7l1.3-1.6l0.7,1.7l-1,1.2l1.2,0.1l-0.3,2.2l-1.1,1.5l-1.6,0.2l-0.8-1l-2.7,0.1l-1,1l2.9-0.1
		l0.4-0.4l1.6,2.5l-1.3,1.8l-1.3,0.5l-1-0.1l0.7,1.3l-1.1,0.2l-1.8-0.5l1.3,1.4l-2,0.7l-1.1-1l-0.5,0.3l0.9,1.4l-1.3,0.1l1.3,0.6
		l2.4-1.1l0.6,0.3l3.1-1.2l-0.5,0.7l1.3,1.4l-1.2,0.6l-2-0.1l-0.9-1l-4,1.9l4.3-1l-2.6,2.3l-0.9-0.1l0.3,3.3l0.5-2.5l1.8-1.6
		l2.2-0.2l0.2,0.7l-1.1,1.1l2.4-1.1h1.4l0.6,1.1l0.5,1.8l-0.9,1.3l-2.6,0.7l1.3,0.5l2.6,0.1l-0.4,2.5l-2.5,0.3l-0.5,0.8l1.9,0.1
		l1.5-0.3l-0.1,2l-1-0.4l-1,1.9l-0.8-0.2l-2.5,0.7l-0.4,0.8l1.4,0.7l0.9-0.4L386.4,101.7z"/>
	<path class="st4" d="M295.8,119.8l0.5,1.5l-0.8,0.7l-3.1-1.4l1.5-1.2L295.8,119.8z M226.8,303.1l-20.4-6.5l-1.6-8.8l1.1-0.9
		l0.1-2.1l-4.4,0.5L199,283l-1,0.7l-4.5-1.5l0.9-3l0.7-4.7l-1.7-1.3l-1.4-2.8l-0.9-5.7l-1.3,0.2l-1.5-1.4l0.1-2.5l1.4-1.4l-0.9-2
		l-0.2-3.1l1.7-2l-1-0.7l-0.3-2.9l2.1-1l-0.3-3l0.5-0.7l-2-3.3l0.4-5.5l-0.9-1h-2.3l1.3-1.2l-0.7-2.6l-1.8-2l2.3-2l-1-2.1l0.9-1
		l3.5-2.1l-0.3-3.5l1.4-0.5l-0.5-1.4l-2.3,0.2l0.8-0.9l-2.5-0.3l-0.5-1.9l1.6-2l-0.9-0.7l2.2-2l-0.1-2.2l0.7-0.6l-0.1-2.4l0.9,0.2
		l-9-5l0.8-2l1.5-1.6l0.8-2l-0.1-2.1l6.7-11.8l1.2,1l1.3,3.5l0.7-1.1l-0.2-1.8l-0.9-0.5l0.5-2.1l1.8-1.8l2.4,0.5l0.4-0.7l1.9,0.2
		l0.8,1.3l2.1-2.6l-0.3,2.2l1.2-0.5l-0.3,1.6l-3,1.6l3.1-0.4l1.5,0.7l2.5-2l1.1,1l0.5-1.2l2.6,1l2.5-1.2l0.1,1.8l1.6-1.8l1.8-0.5
		l2.4,1.8l1.6-1.6l0.3,1.8l-1.3,1.2l-4.2,0.6l-2.6,1.6v-1l-3.9-0.5l-1.3,1.5l-1.2,0.1l-1.2,1.4l0.2-1.6l-2.4,1.6l-1-0.1l-1.7,1.6
		l2.1,1.8l0.8-3l4.8-0.5l1.7-1.6l1.3,0.3l0.1,1.6l1.4-1.4l-1.3,2.8l4.3-3.5l5.1,0.4l-0.3,2l3.8-2.2l0.3-1.2l1.3-0.6l2.1,0.3
		l-1.3-1.2l-0.2-1.2l0.9-1.5v-1.4l1.8,3.7l0.5,2.1l-0.5,5.9l1.4,4.8l1.5,1.8l1.2-0.3l-0.7-1.8l1.2,0.8l-0.7-1.7l0.6-0.9l1.4-0.1
		l1.3-1.9l-0.1-1l2.7-0.7l-1.2,1.8l0.1,1.4l-0.8,1.4l1.5,0.5l-2.7,3.3l1.8,0.3l1.1,0.9l2.4-0.8l1.1-3l1-0.4l3.3,1.3l2.1,1.3l2.1,3.2
		l-5,17l0.1,0.3l29,35.9l8.3,1.3l4.4,7.1l1.6,1.6l3.4,1.2l29.8,7.3l1.2,0.3l-0.2,47.9l0,0l-44.7-2.9L226.8,303.1z M280.1,128
		l1.3-0.3l2-1.4l0.4,0.6l-2.3,3.7l-2.6,2.2l-1.9-1.7L280.1,128z M296.9,105.3l-0.1,0.9l1.1,1.6l0.2,1.2l-1.6,1l-1.3-2.2l-0.4-1.3
		L296.9,105.3z M299.2,172.7l-0.8-0.8l0.8,0.5V172.7z M299.5,170.3l-0.1,0.9l-0.3-0.4L299.5,170.3z M299.6,169.7l-1.5-1.2l-0.5-2.1
		l2.3,0.6L299.6,169.7z M304.1,133.3L304,133l0.2-0.1L304.1,133.3z M304.7,129.1l-0.9-1l0.2-1.6l1.1-0.5L304.7,129.1z M303.7,137.2
		l-1,8l-2.1,0.7l0.2,0.6l-3.6,2.2l-2.6,0.6l-1.8-0.1l-1.9-1l-1.7-3.2l0.8-0.7l2.4-0.5l2.4-1.4l3.8,0.3l2.2-2.5l-1.4,0.5l-3,0.3
		l0.3-1l-2.4,0.9l-2.8-0.3l1.1-2.9l1.3-0.7l-2,0.3l-1.8,3.2l-1.7,0.8l-0.6-0.5l0.3-2l-1.9,2l-1.3-1.4l0.4-1.7l-1.4,0.7l-2.2-1.5
		l0.3-1.8l1.4-1.2l3.3,0.7l1.5-0.9h1l0.9-1.2l-3.4,0.9l-3.1-0.7l1.4-2.2l5.9,0.3l0.1-0.5l-3.8-0.3l-1.3-0.7l0.8-0.7l-0.4-1.2l0.8-1
		l1.1-0.3l3.2,1l-0.7-0.9l-1.4-0.3l-0.1-1.4l1.4-1l3,0.1l0.6,0.5l0.1,3.4l2.9-0.5l1.3,1.5l-0.1,1.6l1.5,1.2l-1.4,1l2,0.4l-0.3,2.7
		l0.3,1.2l2.2-0.3L303.7,137.2z M307.5,106.8l-0.3,2l-2.2,0.4l0.2,1.3l1.5,0.1v1.6l-0.7,1.6l-1.8,0.9l-1-0.4l-2.3,0.9l-0.9-0.7
		l-0.2-1.2l-1.3-1l0.7-4.6l2.6-0.9l4-0.5L307.5,106.8z M308.3,99.7l-0.1,0.2l-0.5,4.1l-0.8,0.4l-1.2-0.5l-0.7-1l-0.9,1.3l-0.8-0.1
		l-0.8-1.4l-2.3,0.9l-0.5-0.9l0.4-0.7l2.8-1.4l0.8,0.3l1.8-1.6l1.8-0.6L308.3,99.7z M299.2,173.1l-3.5,28.2L286,200l-0.1,1.7
		l-1.6-0.1l0.2-1.9l-16.1-3.3l-0.4,1.2l1.3,3.3l-0.8-0.4l-1.2-1.6l-0.1-2.7l2.1-1.1l3.8-0.2l7.2,0.3l2.6,0.9l3.2,1.6l1.8-0.6
		l-0.5-1.1l2.4,1l-1.5-2.3l-2.6-1l-2-2l-1.8-0.8l-0.8,0.4l-10.2-0.1l0.8-1.2l-2-0.6l-0.4,0.8l-2.5-4.1l-0.2-2.2l2.5-1.2l1.2,0.1
		l5.4-1l-0.3-0.6l1.9-0.6l1,1l0.1-1l-1.3-0.4l-6.6,0.5l-2.1-0.6l-0.3-1.2l0.8-0.6l1.8,0.1l-1.2-1.4l-1.5,0.6v-0.9l-2-0.2l0.2-1.7
		l0.8-1.8l1.9-1.9l2.1-0.5l0.3-1l-1.2-1.8l1.9-2l1.3-0.5l2.2-2l1.7-0.1l2.7-1.2l2.2-0.5l3.6-1.4l0.9,0.7l0.6,2.7l-0.9,3.7l-2.4,1.8
		l0.8,0.7l0.9-0.7l1.3,0.5l1.3-1.2l-0.6-0.5l1-1.6l1.5-1l2.9,1.9l2.6,2.5l-0.5,1.8l-2.2,1.8l0.5,1.1l1.2-1.2l1,1.6v-1.4l1.5-1.7
		l1.2,0.3L299.2,173.1z M268.7,143.2l1.8,2.3l2.9,1.7l-0.1,2.4l1.4-2.2l2.1-0.2l1.9,1.1l1.3,2.1l2,4.8l0.8,0.7l0.6,2.5l-1.7,1.1
		l-2.6,0.6l-3,1.6l-7.7,3.3l-1.4,3.1l-1.8,0.9l-1.6-0.6l0.1,1.2l-1.5,1.7l-0.7,2.9l-1.5,2.1l-3.1,0.4l-0.7-1.3l-2.3,1.8L250,178
		l-0.6-2.2l0.1-2.5l-0.6-3.2l-1.6-1.8l-1.4-2.4l-2.1-1l1-1.4l3.2-3.5l1.4-0.5l0.9-3.5l2,0.2l-0.6-2.2l0.9-0.5l1.7-2.7l1.6-0.9
		l0.5-1.4l1.3-0.8l-0.8-1.4l-0.1-2.8l0.5-2.9l-0.3-0.5l4.7,0.4l2,0.5l3.4-0.1l1.2,0.9L268.7,143.2z M290.5,110.4l1.9,3.1l0.1,0.5
		l-3,1.5l0.2,1.1l1,1.2l-0.9,0.6l-0.2,2.4l-1.5,1.2l-2.1,0.1l-0.1,2l-1.4,0.8l-1.3-2l1-3.3l0.8-0.9l-1.6-0.3l-0.6,0.5l0.1,1.8
		l-2,0.4l0.7,2l-1,0.5l-0.5,1.3l-1.1,0.4l0.1-3l-0.9,0.9L278,126l-1.6,1.7l-0.7-0.6l-1.1,0.3l0.7-1.4l-0.7-0.6l0.5-1.6l-0.4-0.7
		l-0.9,1.4l-0.3,1.5h-1l-1-2l-0.8-0.2l-1.2,0.9l-0.4-0.8l0.8-1.1l-0.2-1l-1.1,0.5l0.9-1.3l1.8-1.6l2.3,0.3l2-2.2l2.4-1.1l1.3-2
		l2.4-1.6l0.5-1l1.4-0.5l2.5,0.3l1.3,1.6l1.7-0.8l-1.1-1.1L290.5,110.4z"/>
	<path class="st5" d="M226.8,303.1l54.8,11.4l-15.5,124.3v0.1l-18.8-2.7l-11.2-2l-0.8-2.5l-1.1-0.4l-1.8-4.8l1.3-2l0.2-6.7l-1.1-2.7
		l-1.4-0.1l-0.7-2.3l-1.8-1.8l0.5-1.3l-2.4-2.5l-2.9-8.5l-1.9,0.5l-1.4-5.6h-2l-1.1-2l0.8-1.3l-1.5-1.3l-1.7,1l0.3-3.6l-1.4-2.7
		l-0.3-2.9l-1.2-1.8l-0.5,1.1l-1.3-1.1l-0.3-1.9l-2.2-1.4l-0.5-2.5l1.1,0.4l-0.8-3.3L226.8,303.1z"/>
	<path class="st6" d="M592.9,291.2l0.1,2.2l-1.3,1.1l-1.7,4.6l-2.2,1.4l-0.7,1.6l1.3,2.4l-3.2-0.2l-2.2,0.6l5.8-0.3l-0.5,2.7
		l0.9,0.3l0.9-3.7l3-5.5l-0.8-0.5l0.2-2.2l2.7-4.4l-1.8,0.8l0.4-1.6l4.2-2.8l5,2.6l-1.2,2.7l1.3-0.5l0.8,1.6l0.4-2l-1-1l2.8-3.9
		l0.1,1.5l4.7-0.8l1.1-1l1.2,2.4l1.3,0.4l-0.6,2.6l1.7-0.3l2.5,2l-1.8,3l2.2-1.6l1.5-0.1l-0.1,1.8l2.3,1.3l0.1,2.8l-2,5.7l0.3,2.2
		l-1,1.8l-4.1-5.2L578,333.1l-2.3-3.1l-2.6-0.1l0.1-1.5l2.7-3.1l-1.9-0.2l-2.5,2.5l0.4,1.7l1.5,1.6l1.8,4.3l-0.8,0.1l2,2.3l-0.6,2.4
		l-2.5-0.7l-2.5,1.4l-3.8-2l-2.7,2.2l-3.2-1.2l0.4,1.7l-1.7-1.5l0.6-0.7l-1.6-2.1l0.6-0.6l-3.3-3.7l-0.6,1.7l0.4,0.9l0.3,0.6l-0.5,2
		l-3.8-0.5l-1.8-2l2.4-1.1l-1.3-3.7h-3.4l-2.5-1.8l-3-1.2l0.1-2l-1.9-2l1-1.4l-0.5-1.1l1.9,0.3l-0.4-3.1l-3.8-2.1l5.9,0.7l-2.7-4.7
		l0.4-0.7l3.3,1.4l2.9-0.3l1.8,1.1l1.3-1.1l0.6-3.2l2.7,0.2l1.8-0.9l2.9,0.3l2-1.5L560,307l-0.5-1.8l1.4-0.4l-1.7-3.2l-0.9-0.3
		l0.9-2.3l-2.3,1.2l-1.7-3.2l-1.8-1l1.5-2.2l-3.3,1.4l-0.8-2l-1.3,0.2l-0.8-1.3l1.3-1l-2.8-1.4l0.1-2.7l-1.4-3.7l-2.4-4.3l-2.5,0.2
		l-4.2-2.9l1-4.7l-1.3,0.3l-0.9-1.6l2.1-1.9l-1.8-0.9l-1.2,2.5l-1.7-0.7l-3.1,1.3l-0.4-1.2l2.4-0.7l-2.5-2.5l-0.8-2.7l-0.8,1.6
		l-1.8-0.4l-1.1-2.7v-1.6l-1.8-0.3l1-1.6l-2-0.7l0.8-0.9l0,0l0,0l0,0l1.9,0.4l0.1,1h2.1l1.8,2.9l1.8-0.2l1.5,1.5l-1.1,1.2l2.9-1.2
		l1.8,1l-0.8,2.8l1.2-1.9l3.9,1.2l1.3,1.2l-0.8,3.2l1.5-0.4l1.6-2.2l1.6,3.3l-1.9,1.6l0.7,1.6l0.2-2l2.1-1.9l2.8,1.6l1.4-1l2,0.2
		l0.1,1h-2.2l1.8,1.8l2.2-0.3l-0.7,1.8l0.4,1.9l1.8,0.1l2.2-1.2l0.6,4l-1.1,0.8l1.2,1.5l-4.6,1l4.3-0.5l4.8-1.1l-4.2,2.2l-0.1,1.1
		l3.7-1.9l-0.4,1.7l-2.4,1.4l1.2,0.3l3-2.2l1.5,1.2l0.1-1.7l1.5,1.2l0.7,1.7l4.3-1.9l-0.2,1.5l3.1,1.1l0.3,5.6l1-4.6l0.9,0.7
		l0.7-2.5l1.4,2l1.7-1.7L581,291l0.8-3.3l-0.1-2.2l1.5-0.4l2.7,2.4l6.3-3.3l1.6,0.2l1-1l1.9,0.5l-1.2,2.8l-2.5,2.2l0.5,1.1
		L592.9,291.2z M592.9,291.2l-0.1-0.3l-0.2,0.7l0,0l0,0l0,0l-0.9,1.4l-2.9,3.7l0.7-0.1l2.5-3.4l0.6-1.6l0,0l0,0l0,0L592.9,291.2z
		 M559.4,277.9l0.6,1.6l1.6,1.1l-2-0.1L559.4,277.9z M664.3,332.5v0.1l-0.2-0.1l0,0H664.3L664.3,332.5L664.3,332.5z M664.3,332.5
		l-0.6-3.2l1.3,2.9L664.3,332.5L664.3,332.5L664.3,332.5z M523.5,255.4v0.5l-0.1,0.3l-0.1-0.5L523.5,255.4z M523.5,256.4l1,0.1
		l-1.4,0.3l0,0L523.5,256.4z M523.1,256.8L523.1,256.8L523.1,256.8L523.1,256.8L523.1,256.8L523.1,256.8L523.1,256.8L523.1,256.8z
		 M659.1,336.5l1.2-2.2l-0.3-1.7l-1.4,2.6l-2.5-0.2l1.4,2.7l-2.7,2.5l0.1-2l-2.9,1.6l-3.3,4.4l-3.8,1.7l-2.3,2l-2.2,0.6l-5.6,6.3
		l-1.5,0.4l-2.4-2l1-8l0.8-2.4l-2.2,0.9l-2.8,3.3l0.7-3.1l1.9-0.7l-0.8-1.3l-1.2-5l3-0.1l-1.4-1.2l0.8-1.4l-2.4,0.7l-0.9-1.8
		l1.2-2.2l-1.6-1.3l-1.4-5.7l-2.4-7.4l0.9-2.5l-1.7-4.4l2.7-6.8l0.6,1.4l2-2.9l0.9,3.4l-2.8,1.2l1.3,1.4l1.9-1.1l0.7,1.1l2,13.8
		l2.8,4.7l-0.5-4.1l0.7-1.2l-0.7-3.3l1.4,1.7l0.9-1.8l1.4,0.3l1-2l0.7,0.9l-1.6,4.7l1.4-1.1l0.2,3.7l0.9-2h2.2l-0.1-1.5l2.4-0.4
		l1.1,1.7l2.1-2.8v-4.2l1.4,0.7l1.4-2.1l5-0.9l0.7,2.5l-1.1,2l3.1,3.6l2.6-1.2l-0.3-1.8l1.7-0.1l-0.4-2.2l1.3,0.3l0.8,3.2l-1.2,0.7
		l0.1,2.1l2.3,6.2l3-0.1l-1.2-2.1l-0.8-3.5l1.5-2.7l1.6,5.9l1.8,1.3l0.6-3.2l-1-1.8l3.1,1.3l0.8,3.1l3,4.8l-0.4,2.8l-1.1-0.6
		l-0.8,2.6l-1.9-1.1l-2.3-3.5l-0.1,5.5l-1.5,0.1l-2-6l-3.8-3l-1.5,0.3l1.3,4.6l0.9,0.2l0,0l-0.7,0.3l-1.1,2.4l-0.9-0.1l0.3,3.5
		l1,3.1l-2.5,3l-1.6,0.6l-0.8-1.9l1.8-2.5L659.1,336.5z"/>
	<path class="st7" d="M281.6,314.5l44.7,2.9l-0.2,47.4l4.4,78h-8l-56.5-4v-0.1L281.6,314.5z"/>
	<path class="st8" d="M326.3,317.4l40.3-2l0,0l0,0l0.3,4l0.9,3.4l-0.1,3.7l2.5,3.1l1.2-1.1l6.1-0.1l0.5,2.5l2.6,4.8l0.6,2.3l2.8,5.5
		l-1.1,4.8l1.2-1.2l1.6-0.1l6.7-3.8l2.8-0.1l5,2l5.6,0.3l-5,8.4l-7,11.5l-6.4,10.6l-6.3,10.1l-8.4,10.8l3.8,39.3l0.3,4.3l-46.2,2.5
		l-4.4-78l0.2-46.1v-1.4H326.3z"/>
	<path class="st9" d="M555.9,335.4l0.2-2.6l3.3,3.7l-0.6,0.6l1.6,2.1l-0.6,0.7l1.7,1.5l-0.4-1.7l3.2,1.2l2.7-2.2l3.8,2l2.5-1.4
		l2.5,0.7l0.6-2.4l-3.1-6.7l-1.9-3.3l2.5-2.5l1.9,0.2l-2.7,3.1l-0.1,1.5l2.6,0.1l2.3,3.1l37.4-27.5l4.1,5.2l-1.5-0.1l-2.2,2.2
		l-0.6,2.7l-1.6,1.3l-1.7,6l1.3,1.5l-1.3,3.5l-0.4,5l-1,2.5L606,338l-4.2,5.2l-1.7-0.6l-8.3,4.8l-1.2,1.7l-2.8,0.6l-2.4,2.2
		l-1.7,0.4l-2.2,2.1l-2.6,0.9l-4.3,4.5l-2.5,0.5l-0.9,1.7l-1.1,5.3l1.4,4.2l-0.2,1.6l-4.1,3l-1,1.9l1.2,0.3l-2.4,2.2l-1.5,4.7v6.1
		l-1.6,2.7l-1.9-0.5l-7.8,1.6l2.2,0.3l1.8-1l3.6-0.5l2.7,0.3l0.5,4.3l-0.6,4l-1.4,1.4l0.1,4.2l-1.2,1.8l-1.3,4.4l-3.5,2.3l-1.8,2.7
		l-1.4,3.9l-2.4,2.4l-0.3,2l2.4-2.7l0.8-2.7l3.1-5.5h1.1l2.4-2.7l1.5-4.4l-0.2,2.2l2.7-3.3l1.1-6.5l2.6-11.4l3.4-7.3l7.6-10.8
		l2.1-2.5l3.8-3.1l4.1-1.9l3.3-0.5l3.3,0.6l1.1,1l-3,0.3l3.9,1l0.1,2.9l-1.9,2.2l0.5,1.5l-3,4.6l-3,0.3l-1.4-0.6l-0.6,2.1l-2.8,1.6
		l-1.5,2.3l-3,3.5l-2.1-0.4l-3.3,1.9l-1.4,1.7l2,3.7l-0.5,1.9l-2.7,3.3l-0.7-1.3l-1.5,0.5l-1.2,10.3l1,3.2l0.2,4.4l0.9,1l0.2,2.9
		l-1.2,2.7l0.2,4.2l-1.3-0.6l-2,1.8l0.2,3.5l-23.7,11.4l1.5-1.6l4.1-6.5l1-0.3l-0.6-4l0.5-3.6l-0.7,4.2l0.2,3.3l-3,1.2l0.9,0.9
		l-2.2,2.7l-1.4-0.6l-0.5-3l-2.2-0.1l-4.4,2.9l-3.7,3.8l-1.7-0.7l-2,1.4l-2.7-0.3l-2.4-2.7l-0.9,1.5l-6.9-2.3l-8.3,1.3l-2.8-1.4
		l-5.6-4.8l-2.5-3.6l0.1-1.4l-12.7-36.7l1.8,1.2l-1.9-1.5L482,389l-0.4-1.1l0.5-2.5l1,1.2l2,0.2l1.4,2.2l-0.6-4.4l-2.2-1.1l0.3-2.3
		l1.3-2.4l-0.4-2.9l-1.3-1.8l-1.7-0.8l-0.6-1.8l-2.1-1.7l-1.1-3.9l-1.6-1l-1.1-5.8l-1-1.6l-2.1,0.6l-1.7-2.7l-2.4-1.4l7-7.1l2.7-4
		l2.4-5.8l-0.4-0.3l1.4-5l-0.3-2.6l-1.8-5.3l-2.5-4.9l-2.9-3.8l-2.7-2.4l-4.1-2.1l-2.9-0.3l-4.1-1.9l-0.7-2.5l1-1.3l0.2-2.8l1.2-1.5
		l-1.1-1.9l-0.3-2.2l2.2-2.3l-1.1-0.9l0.6-1.4l-2.4,0.1l0.9-1.2l-2.9-2.4l0.6-1.7l-1.8-0.4l0.7-1.7l-1.4,0.6l-1.8-0.7l0.9-3l-1.3-4
		l1.1-0.8l-2.1-1.8l-0.7,0.3l-1.5-1.8l-1.9-4.2l2-4.3l2.7-0.5l7.8,0.2l1.1-1.1l3.4,0.5l-0.1-1.1l1.4-0.7l2.5-3.9l3,0.7l1.3,1
		l2.4-0.3l1,1.8l2.1-0.3l2.1,1.6l1.8-0.5l-0.1,2.7l3.9,1.7l5-1.1l1.5-1.2l1.9,1.8l0.7-3.5l2.2,2.5l-1,2l0.3,1.8l1.3,1.8l1.3,0.6
		l0.3,2.6l-2.7,1.2l-1.1,1.2l4-2l1.6,0.5l0.9,3.4l1.7,2.4l0.6-1.1l1.7,0.6l-1,2l2.1-1.4l0.5,1l-2.1,0.8l1.2,1.6l-1.8,2.5l1.6,1.4
		l0.1-2.1l1.1-2.4l2.2-1.5l2.9,0.1l2.1,1.8l1.4,4.4l-0.2,1.4l-2.1,2.2l-0.8,1.7l3.1-3.7l0.3-1.5l-1.3-4.5l3.6-0.5l0.8,3.1l1.8-5.8
		l1.2-1.2l-0.4-3.9l3.6,1l-1.8-1.1l0.6-4.4l-1.6-1.5l1.7-1.3l-2.1-1.5l0.4-0.7l-1.7-1.6l0.9-2l-0.1-1.8l-1.3-4.4l1.9-0.3l-0.4,0.4
		l0,0l0,0l0,0l0,0l0,0l0,0l0,0l0,0l0,0l-0.8,0.9l2,0.7l-1,1.6l1.8,0.3v1.6l1.1,2.7l1.8,0.4l0.8-1.6l0.8,2.7l2.5,2.5l-2.4,0.7
		l0.4,1.2l3.1-1.3l1.7,0.7l1.2-2.5l1.8,0.9l-2.1,1.9l0.9,1.6l1.3-0.3l-1,4.7l4.2,2.9l2.5-0.2l2.4,4.3l1.4,3.7l-0.1,2.7l2.8,1.4
		l-1.3,1l2.1,1.1l0.8,2l3.3-1.4l-1.5,2.2l1.8,1l1.7,3.2l2.3-1.2l-0.9,2.3l0.9,0.3l1.7,3.2l-1.4,0.4l0.5,1.8l1.8,0.7l-2,1.5l-2.9-0.3
		l-1.8,0.9l-2.7-0.2l-0.6,3.2l-1.3,1.1l-1.8-1.1l-2.9,0.3l-3.3-1.4l-0.4,0.7l2.7,4.7l-5.9-0.7l3.8,2.1l0.4,3.1l-1.9-0.3l-0.5,2.5
		l1.9,2l-0.1,2l3,1.2l2.5,1.8h3.4l1.3,3.7l-2.4,1.1l1.8,2l3.8,0.5L555.9,335.4z M586.5,356l1.7-1.6l5.4-1.9l6.5-1.4l3.2,0.4l2.4-0.8
		l2.8,1.7l-3.2,2.6l-6.2,2l-4,0.5l-1.1-1l-2.8-0.3l-3.9,0.7L586.5,356z"/>
	<path class="st10" d="M483.5,393.3l-2.4-1.9l-0.4-2.2l0.9-1.3l0.4,1.1L483.5,393.3z M544.3,440.3l-0.7,2l-1,1.6l-1.2,0.4l-2.4,2.9
		l-3,7.2l-1.8,2.2l-2.9,1.8l-1.9,4.1L526,464l-1.2-0.7l-7.4,4.4l-3.4,2.4l-2.4,3l-1.2,4.4l1,0.7l3.1-0.5l1.8-1.8l0.6,2.2l1.8,1.2
		l-2,1.5l-4.1,1.6l-3.5,2.2l-1.8,3.3l-3.8,0.1l-3.4,1.4l-2.7,3.9v1.6l-3.9,3l-0.4,2.8l-1.4-1l-2.3,1.3l-2-0.5l-0.4-2.8l5.2-1.9
		l-0.4-1.9l-1.5,0.3l0.1-6.3l1.6-1.4l2.4-4.4l-2.5-7.8l0.3-3.1l1.5-3.9l-1.8-4l-3.7-2.4l3.1-0.8l1.2,2.7l2.5-0.5l-0.7,2.4l1.4-0.6
		l0.8,2.4l0.9-1.8l6,1l0.1-2.7l-1.9-0.6l1.6-1.4l2.1,0.3l-4.2-2.8l-0.2-2.3l-2.5,0.1l-5.2-4.9l-3.1,1l-4.2-1l-3.9,1.3h-2l-4.6,1.4
		l-7.6,0.3l1.3,0.9l-0.8,2l-2.7-3.5l0.1-1.2l-3.7,0.8l-0.7-3.9l-2-0.7l0.5-3.9l-4.1-2.7l0.4-3.7l-0.8-0.4l-3.6,1.4l-3.4,0.1
		l-2.1-1.6l-2.6-4.4l-1.7-1.8l-2.2,0.1l-4.1,1.4l-5.9-1.2l-1.7,0.4l1.5,1.8l1-0.9l2.9,0.6l-2.8,0.7l-1.4,2.2l-2.5,1.7l1.4-2.7
		l-1.5-1.5l-0.7,5.6l-1.1-2l-2.7,2l-0.2,3.8l-1.7,1.8l-3,0.3l-1.7-1l-4.5,1l-1.3-1.3l-3.4,2.8l-2.1-0.4l-3-2.2l-2.4,1.6l-2.5-3.2
		l-4.7-0.5l-3.6,1.8l-1.1-1.3l-2.7,0.2l-3.8-1.4l-1.4-5.5l-2.6-0.6l-3.8-39.3l8.4-10.8l6.3-10.1l6.4-10.6l7-11.5l5-8.4l4.5,2.8
		l2.2,0.6l3.4,3.9l3.9,0.4l4.8,1.3l4,0.4l2,1.6l2,0.3l0.1,1.4l1.4-1h2.2l4-2.1l1.9,0.4l9-1.2l1.3,3l0.1,5.3l0.4,1.7l1.7,1.4l1.6,2.5
		l0.1,2.5l1.7,3.3l-0.6,0.8l0.4,2.9l6.5,4.1l0.4,1.6l2.2,1.8l2.9,0.3l3.6,2.2l2.4,3.5h2.4l3.1,1l2.2,1.4l12.7,36.7l-0.1,1.4l2.5,3.6
		l5.6,4.8l2.8,1.4l8.3-1.3l6.9,2.3l0.9-1.5l2.4,2.7l2.7,0.3l2-1.4l1.7,0.7l3.7-3.8l4.4-2.9l2.2,0.1l0.5,3L544.3,440.3z M486.3,458.5
		l-7.5-0.9l-6.5,0.7l0.7-1.5l2.2,0.3l2-1.4l0.9,1.5l3.3-3.1l1.5,1.6l1-1.9l1.9,1.7l1.6,0.1L486.3,458.5z"/>
	<path class="st11" d="M613.3,392.4l-0.6,0.7v1.8l-0.7,2l-1.4-1.5l0.2,3.7l-2.8,4.1l-2.6,5l-1.3,0.2l-1.5,3.3l-0.9-0.5l-2.2,2.7
		l-1.1-1.1l-2.8,2l-1.5-0.7l-1.1-2.7l-4.1-1l-0.9-2l-6.2-10.8l-4.3-1.5l-4,4.2l-1.6-0.5l2.7-3.3l0.5-1.9l-2-3.7l1.4-1.7l3.3-1.9
		l2.1,0.4l3-3.5l2.6-2.5l0.8,0.4l3.9-1l2.7,1.6l1.9-3.1l3.8-2l-0.6-3l1.2,1.8l-1,2.9l0.8,2.1l0.1,3.8l-1,2.1l3.6-2.2l0.7,2.3
		l6.6,4.7l5.7-2L613.3,392.4z"/>
	<path class="st12" d="M612.7,395v-1.8l0.6-0.7l2.2-0.1l2.1-1.4l2.4,0.6l0.7-1.6l3.7-1.2l1.8,0.2l1.8-5.1l1.4,1.6l2.4-0.4l0.6-1.4
		l2.9,1.3l-0.6,1.8l3.1-2v1.7l-3.6,3.2l-1.1,3.5l-2.4,2.6l-2.5,5l-1-0.8l-0.3,2.3l-2.3,1l1.5,1.7l-5.8,2.5l1.5,2.8l-0.7,6.9
		l-1.1,2.9l-1.5,0.7l0.5,1.4l-2.1,2.2l-3.2-2.2l-1.1,1.7l-2.7-3.1l-0.8-3l0.6-3.3l-1.2,0.4l4.5-10.5l2.5-4l1.2,2.2l2.6-4.5l2.7-2.5
		l-1.8,0.7l-6.8,4.2l-1.9,2.4l-0.5-1.1L612.7,395z M634.9,379.5l-0.8,1.6l3.1-1l-0.6-1l0.7-3.5l-1.3,2.6l-0.9-0.3l0.1-4l0.6-1.8
		l4.1-0.7l1.3,1.3l-1.5,6.5l-2.7,4l-3,1.2l-1.7-0.8l-2.8-2.8l0.2-5.9l-0.9-4.4l0.2-3.4l1.5-0.9l2.9,3.6l0.9,4.4l0.8-0.9l-0.6,3.6
		L634.9,379.5z"/>
	<path class="st13" d="M621.4,387.2l-1.5-0.1l-0.5-1.5l-1.9,2l-2.8,0.8l-1.8-1.2l-2.7,1.6L609,387l-2.4,0.4l0.4-5.6l1.1,3.2l4.7,1.5
		l-0.3-1.4l3.7-0.2l4.3-3.9l3.7-2.2l-1.9,2.7l1.3,4.6L621.4,387.2z"/>
	<path class="st14" d="M206.4,296.6L129.8,259h-0.1l-0.1-1.1l2-2.4l-2.5-1.4l-2.7,0.2l-1.2-2.3l-1,0.4l-1.5-2.5l58.9-88l2.2,2.2
		l1.2,0.5l1.9,2.7v1.4l1.3,4.5l2,3.8l1.4,1.8l1,0.1l-6.7,11.8l0.1,2.1l-0.8,2l-1.5,1.6l-0.8,2l9,5l-0.9-0.2l0.1,2.4l-0.7,0.6
		l0.1,2.2l-2.2,2l0.9,0.7l-1.6,2l0.5,1.9l2.5,0.3l-0.8,0.9l2.3-0.2l0.5,1.4l-1.4,0.5l0.3,3.5l-3.5,2.1l-0.9,1l1,2.1l-2.3,2l1.8,2
		l0.7,2.6l-1.3,1.2h2.3l0.9,1l-0.4,5.5l2,3.3L191,245l0.3,3l-2.1,1l0.3,2.9l1,0.7l-1.7,2l0.2,3.1l0.9,2l-1.4,1.4l-0.1,2.5l1.5,1.4
		l1.3-0.2l0.9,5.7l1.4,2.8l1.7,1.3l-0.7,4.7l-0.9,3l4.5,1.5l1-0.7l2.5,2.3l4.4-0.5l-0.1,2.1l-1.1,0.9L206.4,296.6z"/>
	<text transform="matrix(1 0 0 1 168.6156 390.559)" class="st15 st16">British</text>
	<text transform="matrix(1 0 0 1 168.6156 406.159)" class="st15 st16">Columbia</text>
	<text transform="matrix(1 0 0 1 325.5135 260.5356)" class="st15 st16">Nunavut</text>
	<text transform="matrix(1 0 0 1 221.698 268.3065)" class="st15 st16">Northwest</text>
	<text transform="matrix(1 0 0 1 221.698 283.9065)" class="st15 st16">Territories</text>
	<text transform="matrix(1 0 0 1 224.3109 371.0303)" class="st15 st16">Alberta</text>
	<text transform="matrix(1 0 0 1 564.2665 263.7396)" class="st15 st17">Newfoundland</text>
	<text transform="matrix(1 0 0 1 564.2665 278.1396)" class="st15 st17">and Labrador</text>
	<text transform="matrix(2.013469e-02 -0.9998 0.9998 2.013469e-02 303.6841 417.6308)" class="st15 st16">Saskatchewan</text>
	<text transform="matrix(1 0 0 1 335.1243 365.4412)" class="st15 st16">Manitoba</text>
	<text transform="matrix(1 0 0 1 498.6317 365.4409)" class="st15 st16">Québec</text>
	<text transform="matrix(1 0 0 1 415.49 408.7937)" class="st15 st16">Ontario</text>
	<text transform="matrix(9.450650e-04 -1 1 9.450650e-04 588.1216 491.1566)" class="st15 st17">New Brunswick</text>
	<text transform="matrix(1 0 0 1 603.808 438.9224)" class="st15 st17">Nova Scotia</text>
	<text transform="matrix(1 0 0 1 603.8083 365.4406)" class="st15 st18">Prince</text>
	<text transform="matrix(1 0 0 1 603.8083 373.8406)" class="st15 st18">Edward</text>
	<text transform="matrix(1 0 0 1 603.8083 382.2406)" class="st15 st18">Island</text>
	<text transform="matrix(1 0 0 1 143.1303 248.6069)" class="st15 st16">Yukon</text>
</g>
<path class="st19" d="M790,261.5h10v10h-10V261.5z"/>
<path class="st19" d="M5,5"/>
<text transform="matrix(1 0 0 1 680 513.3333)" class="st20 st21">paintmaps.com</text>
<path class="st22" d="M0,0"/>
</svg>
